<?xml version="1.0" encoding="UTF-8" standalone="no"?>
<!DOCTYPE svg PUBLIC "-//W3C//DTD SVG 1.1//EN"
 "http://www.w3.org/Graphics/SVG/1.1/DTD/svg11.dtd">
<!-- Generated by graphviz version 14.0.0 (20250921.2048)
 -->
<!-- Title: G Pages: 1 -->
<svg width="213pt" height="478pt"
 viewBox="0.00 0.00 213.00 478.00" xmlns="http://www.w3.org/2000/svg" xmlns:xlink="http://www.w3.org/1999/xlink">
<g id="graph0" class="graph" transform="scale(1 1) rotate(0) translate(4 474)">
<title>G</title><style>.edge>path:hover{stroke-width:8}</style>
<polygon fill="white" stroke="none" points="-4,4 -4,-474 209.21,-474 209.21,4 -4,4"/>
<!-- flask -->
<g id="node1" class="node">
<title>flask</title><style>.edge>path:hover{stroke-width:8}</style>
<ellipse fill="#cc3333" stroke="black" cx="60.13" cy="-380" rx="27" ry="18"/>
<text xml:space="preserve" text-anchor="middle" x="60.13" y="-376.12" font-family="Helvetica,sans-Serif" font-size="10.00" fill="#ffffff">flask</text>
</g>
<!-- src_app -->
<g id="node5" class="node">
<title>src_app</title><style>.edge>path:hover{stroke-width:8}</style>
<ellipse fill="#7038a8" stroke="black" cx="32.13" cy="-127" rx="28.55" ry="18"/>
<text xml:space="preserve" text-anchor="middle" x="32.13" y="-123.12" font-family="Helvetica,sans-Serif" font-size="10.00" fill="#ffffff">src.app</text>
</g>
<!-- flask&#45;&gt;src_app -->
<g id="edge1" class="edge">
<title>flask&#45;&gt;src_app</title><style>.edge>path:hover{stroke-width:8}</style>
<path fill="none" stroke="black" d="M60.13,-253C51.55,-225.07 19.02,-242.7 5.13,-217 -5.7,-196.96 3.61,-171.97 14.15,-153.58"/>
<polygon fill="#cc3333" stroke="black" points="17.08,-155.49 19.38,-145.15 11.13,-151.8 17.08,-155.49"/>
<path fill="none" stroke="black" d="M62.71,-361.7C65.78,-337.28 69.4,-291.5 60.13,-254"/>
</g>
<!-- src_app_pages -->
<g id="node6" class="node">
<title>src_app_pages</title><style>.edge>path:hover{stroke-width:8}</style>
<ellipse fill="#7546a4" stroke="black" cx="60.13" cy="-199" rx="45.86" ry="18"/>
<text xml:space="preserve" text-anchor="middle" x="60.13" y="-195.12" font-family="Helvetica,sans-Serif" font-size="10.00" fill="#ffffff">src.app.pages</text>
</g>
<!-- flask&#45;&gt;src_app_pages -->
<g id="edge2" class="edge">
<title>flask&#45;&gt;src_app_pages</title><style>.edge>path:hover{stroke-width:8}</style>
<path fill="none" stroke="black" d="M60.13,-253C57.73,-245.2 57,-236.44 57.06,-228.33"/>
<polygon fill="#cc3333" stroke="black" points="60.54,-228.76 57.54,-218.6 53.55,-228.41 60.54,-228.76"/>
</g>
<!-- psycopg -->
<g id="node2" class="node">
<title>psycopg</title><style>.edge>path:hover{stroke-width:8}</style>
<ellipse fill="#80c040" stroke="black" cx="161.13" cy="-452" rx="31.21" ry="18"/>
<text xml:space="preserve" text-anchor="middle" x="161.13" y="-448.12" font-family="Helvetica,sans-Serif" font-size="10.00" fill="#000000">psycopg</text>
</g>
<!-- src_load_data -->
<g id="node7" class="node">
<title>src_load_data</title><style>.edge>path:hover{stroke-width:8}</style>
<ellipse fill="#7f40c0" stroke="black" cx="161.13" cy="-308" rx="44.08" ry="18"/>
<text xml:space="preserve" text-anchor="middle" x="161.13" y="-304.12" font-family="Helvetica,sans-Serif" font-size="10.00" fill="#ffffff">src.load_data</text>
</g>
<!-- psycopg&#45;&gt;src_load_data -->
<g id="edge3" class="edge">
<title>psycopg&#45;&gt;src_load_data</title><style>.edge>path:hover{stroke-width:8}</style>
<path fill="none" stroke="black" d="M161.13,-433.59C161.13,-409.61 161.13,-366.14 161.13,-337.42"/>
<polygon fill="#80c040" stroke="black" points="164.63,-337.62 161.13,-327.62 157.63,-337.62 164.63,-337.62"/>
</g>
<!-- run_py -->
<g id="node3" class="node">
<title>run_py</title><style>.edge>path:hover{stroke-width:8}</style>
<ellipse fill="#529999" stroke="black" cx="161.13" cy="-18" rx="27" ry="18"/>
<text xml:space="preserve" text-anchor="middle" x="161.13" y="-14.12" font-family="Helvetica,sans-Serif" font-size="10.00" fill="#000000">run.py</text>
</g>
<!-- src -->
<g id="node4" class="node">
<title>src</title><style>.edge>path:hover{stroke-width:8}</style>
<ellipse fill="#853bce" stroke="black" cx="106.13" cy="-127" rx="27" ry="18"/>
<text xml:space="preserve" text-anchor="middle" x="106.13" y="-123.12" font-family="Helvetica,sans-Serif" font-size="10.00" fill="#ffffff">src</text>
</g>
<!-- src&#45;&gt;run_py -->
<g id="edge4" class="edge">
<title>src&#45;&gt;run_py</title><style>.edge>path:hover{stroke-width:8}</style>
<path fill="none" stroke="black" d="M125.09,-113.65C137.79,-104.2 153.52,-89.93 161.13,-73"/>
</g>
<!-- src_app&#45;&gt;run_py -->
<g id="edge5" class="edge">
<title>src_app&#45;&gt;run_py</title><style>.edge>path:hover{stroke-width:8}</style>
<path fill="none" stroke="black" d="M54.97,-115.59C59.95,-113.37 65.2,-111.08 70.13,-109 110.21,-92.12 143.31,-112.68 161.13,-73"/>
<path fill="none" stroke="black" d="M161.13,-72C164.52,-64.44 165.53,-55.65 165.41,-47.42"/>
<polygon fill="#7038a8" stroke="black" points="168.9,-47.2 164.68,-37.48 161.92,-47.71 168.9,-47.2"/>
</g>
<!-- src_app_pages&#45;&gt;src_app -->
<g id="edge6" class="edge">
<title>src_app_pages&#45;&gt;src_app</title><style>.edge>path:hover{stroke-width:8}</style>
<path fill="none" stroke="black" d="M53.35,-181.05C50.26,-173.32 46.51,-163.96 43.04,-155.27"/>
<polygon fill="#7546a4" stroke="black" points="46.37,-154.18 39.41,-146.19 39.87,-156.78 46.37,-154.18"/>
</g>
<!-- src_load_data&#45;&gt;run_py -->
<g id="edge7" class="edge">
<title>src_load_data&#45;&gt;run_py</title><style>.edge>path:hover{stroke-width:8}</style>
<path fill="none" stroke="black" d="M161.13,-253C146.53,-215.76 144.74,-109.49 161.13,-73"/>
</g>
<!-- src_load_data&#45;&gt;src_app_pages -->
<g id="edge8" class="edge">
<title>src_load_data&#45;&gt;src_app_pages</title><style>.edge>path:hover{stroke-width:8}</style>
<path fill="none" stroke="black" d="M161.13,-253C152.91,-232.04 132.08,-219.25 111.45,-211.5"/>
<polygon fill="#7f40c0" stroke="black" points="112.78,-208.25 102.18,-208.37 110.54,-214.88 112.78,-208.25"/>
<path fill="none" stroke="black" d="M164.25,-289.7C165.43,-279.05 165.56,-265.31 161.13,-254"/>
</g>
</g>
</svg>
